<?xml version="1.0" encoding="iso-8859-1"?>
<!-- Uploaded to: SVG Repo, www.svgrepo.com, Generator: SVG Repo Mixer Tools -->
<svg fill="#fe2644" height="800px" width="800px" version="1.1" id="Layer_1" xmlns="http://www.w3.org/2000/svg" xmlns:xlink="http://www.w3.org/1999/xlink" 
	 viewBox="0 0 491.52 491.52" xml:space="preserve">
<g>
	<g>
		<path d="M102.4,368.64c-34.816,0-61.44,26.624-61.44,61.44c0,34.816,26.624,61.44,61.44,61.44s61.44-26.624,61.44-61.44
			C163.84,395.264,137.216,368.64,102.4,368.64z M102.4,450.56c-12.288,0-20.48-8.192-20.48-20.48s8.192-20.48,20.48-20.48
			c12.288,0,20.48,8.192,20.48,20.48S114.688,450.56,102.4,450.56z"/>
	</g>
</g>
<g>
	<g>
		<path d="M430.08,368.64c-34.816,0-61.44,26.624-61.44,61.44c0,34.816,26.624,61.44,61.44,61.44c34.816,0,61.44-26.624,61.44-61.44
			C491.52,395.264,464.896,368.64,430.08,368.64z M430.08,450.56c-12.288,0-20.48-8.192-20.48-20.48s8.192-20.48,20.48-20.48
			s20.48,8.192,20.48,20.48S442.368,450.56,430.08,450.56z"/>
	</g>
</g>
<g>
	<g>
		<path d="M81.92,163.84H20.48C8.192,163.84,0,172.032,0,184.32v102.4c0,12.288,8.192,20.48,20.48,20.48h61.44
			c12.288,0,20.48-8.192,20.48-20.48v-102.4C102.4,172.032,94.208,163.84,81.92,163.84z M61.44,266.24H40.96V204.8h20.48V266.24z"/>
	</g>
</g>
<g>
	<g>
		<path d="M184.32,0c-34.816,0-61.44,26.624-61.44,61.44s26.624,61.44,61.44,61.44s61.44-26.624,61.44-61.44S219.136,0,184.32,0z
			 M184.32,81.92c-12.288,0-20.48-8.192-20.48-20.48c0-12.288,8.192-20.48,20.48-20.48s20.48,8.192,20.48,20.48
			C204.8,73.728,196.608,81.92,184.32,81.92z"/>
	</g>
</g>
<g>
	<g>
		<path d="M307.2,202.752V143.36c0-12.288-8.192-20.48-20.48-20.48h-45.056c-8.192-24.576-30.72-40.96-57.344-40.96
			c-34.816,0-61.44,26.624-61.44,61.44v143.36c0,12.288,8.192,20.48,20.48,20.48h14.336c4.096,2.048,6.144,4.096,6.144,6.144
			c0,8.192-2.048,16.384-4.096,24.576l-10.24,24.576c-6.144,12.288,4.096,26.624,18.432,26.624H286.72
			c14.336,0,24.576-14.336,18.432-28.672l-40.96-108.544c-4.096-16.384-20.48-28.672-38.912-28.672h61.44
			C299.008,223.232,307.2,215.04,307.2,202.752z M266.24,184.32H204.8c-12.288,0-20.48,8.192-20.48,20.48v40.96
			c0,12.288,8.192,20.48,20.48,20.48h20.48L256,348.16h-57.344c4.096-12.288,6.144-24.576,6.144-34.816
			c0-22.528-16.384-40.96-38.912-47.104h-2.048V143.36c0-12.288,8.192-20.48,20.48-20.48s20.48,8.192,20.48,20.48
			c0,12.288,8.192,20.48,20.48,20.48h40.96V184.32z"/>
	</g>
</g>
<g>
	<g>
		<path d="M415.744,247.808c-4.096-24.576-10.24-38.912-26.624-49.152V143.36c0-12.288-8.192-20.48-20.48-20.48h-81.92
			c-12.288,0-20.48,8.192-20.48,20.48v61.44c0,12.288,8.192,20.48,20.48,20.48v122.88h-88.064
			c4.096-12.288,6.144-24.576,6.144-34.816c0-22.528-16.384-40.96-38.912-47.104h-4.096H20.48C8.192,266.24,0,274.432,0,286.72
			v102.4c0,34.816,26.624,61.44,61.44,61.44c12.288,0,20.48-8.192,20.48-20.48s8.192-20.48,20.48-20.48
			c12.288,0,20.48,8.192,20.48,20.48s8.192,20.48,20.48,20.48h184.32c8.192,0,16.384-6.144,18.432-14.336
			c22.528-59.392,47.104-88.064,69.632-88.064c18.432,0,30.72,6.144,38.912,14.336c12.288,12.288,34.816,4.096,34.816-14.336
			v-12.288C489.472,292.864,458.752,256,415.744,247.808z M417.792,307.2c-43.008,0-77.824,36.864-104.448,102.4h-153.6
			c-8.192-24.576-30.72-40.96-57.344-40.96c-24.576,0-45.056,14.336-55.296,34.816c-4.096-4.096-6.144-8.192-6.144-14.336V307.2
			h116.736c4.096,2.048,6.144,4.096,6.144,6.144c0,8.192-2.048,16.384-4.096,24.576l-10.24,24.576
			c-6.144,12.288,4.096,26.624,18.432,26.624H307.2c12.288,0,20.48-8.192,20.48-20.48V204.8c0-12.288-8.192-20.48-20.48-20.48
			v-20.48h40.96v40.96v6.144c0,8.192,4.096,16.384,12.288,18.432c10.24,4.096,14.336,12.288,20.48,40.96
			c2.048,10.24,10.24,16.384,20.48,16.384c18.432,0,32.768,10.24,40.96,22.528C436.224,307.2,425.984,307.2,417.792,307.2z"/>
	</g>
</g>
</svg>