<?xml version="1.0" encoding="utf-8"?>
<!-- Uploaded to: SVG Repo, www.svgrepo.com, Generator: SVG Repo Mixer Tools -->
<svg width="800px" height="800px" viewBox="0 0 1024 1024" class="icon"  version="1.1" xmlns="http://www.w3.org/2000/svg"><path d="M973.312 330.752c-7.168-94.72-22.016-188.928-41.984-282.112-1.536-6.144-5.632-8.192-10.24-8.192-2.56-0.512-5.12 0-7.68 1.536-36.864 20.992-73.728 42.496-111.616 61.44-35.328 17.92-72.704 32.256-108.032 51.2-65.024 34.304-123.392 79.872-174.592 132.608-48.128 49.152-91.648 105.984-113.664 171.52-12.288 36.864-15.36 75.264-15.872 113.664v7.68c-80.384-108.032-204.8-178.176-339.456-189.952-10.752-1.024-13.824 11.776-8.192 18.432-0.512 1.024-0.512 2.048-0.512 3.072-3.584 76.288-6.656 154.112-0.512 230.4 4.608 59.904 23.552 115.2 60.416 163.328 73.216 95.232 200.704 138.24 318.464 123.392 1.024 0 1.536-0.512 2.048-0.512 6.144 1.024 13.312-2.56 13.824-10.752 2.048-20.48-0.512-39.936-5.12-59.392 11.264 21.504 25.088 41.984 42.496 59.904 2.56 3.072 6.144 4.608 11.264 3.072 36.864-12.288 73.728-22.528 112.128-28.672 36.864-5.632 72.704-13.312 107.008-27.648 64-25.6 120.832-66.048 169.472-114.688 47.616-47.616 81.408-107.52 95.232-173.568 17.408-78.336 10.752-165.888 5.12-245.76zM140.288 539.136c65.024 43.52 116.736 102.912 166.4 162.304 48.128 57.344 109.056 125.44 107.52 204.8-112.64 12.288-233.472-28.672-301.056-122.368-36.352-50.176-49.152-107.008-51.712-167.936-2.56-67.072-1.536-134.656 1.536-202.24 132.096 15.872 253.44 92.16 324.608 204.8 0 25.6 0 51.2 1.536 76.288 2.56 36.352 7.68 72.192 18.432 107.008-20.48-37.888-49.152-72.704-75.264-103.936-54.272-65.536-110.08-130.048-181.248-178.176-11.776-8.192-23.04 11.776-10.752 19.456z m813.056-13.312c-4.096 70.144-32.256 141.824-80.384 193.536-45.568 49.152-99.328 90.624-160.768 118.784-37.376 16.896-76.8 26.624-117.248 32.768-32.768 5.12-64 12.8-95.744 22.528-9.728-60.928 8.704-121.344 31.232-177.664 11.776-29.184 23.552-56.832 29.184-88.064 1.536-8.192 2.56-15.872 4.096-23.552 75.264-28.672 146.432-91.136 230.912-79.36 14.336 2.048 20.48-19.968 6.144-22.016-87.552-12.288-155.648 43.52-231.936 74.752 2.56-10.752 5.12-22.016 9.216-32.768 37.888-111.616 126.464-195.072 215.552-267.776 11.264-9.216-4.608-25.088-15.872-15.872-92.672 75.264-181.76 162.304-221.184 277.504-5.632 16.384-9.216 33.28-12.288 50.176-2.56 3.072-3.072 7.168-2.048 10.752-2.048 10.24-3.584 19.968-5.632 30.208-6.144 31.744-20.48 60.928-32.256 91.136-20.48 53.248-34.304 108.544-28.16 165.376-40.96-51.712-57.856-117.248-62.976-182.784-2.048-28.672-2.56-57.344-2.048-85.504 0.512-1.536 0.512-2.56 0-4.096 0-8.704 0-16.896 0.512-25.6 0.512-38.4 1.024-76.8 12.288-113.664 19.456-66.048 63.488-123.392 111.104-172.032 48.128-49.152 102.912-92.16 163.328-125.44 35.84-19.456 74.24-34.304 111.104-52.736 35.328-17.408 69.12-36.864 103.424-56.32 30.72 150.016 49.664 304.64 40.448 457.728z" fill="#72AA29" /></svg>